<?xml version="1.0" encoding="UTF-8" standalone="no"?>
<!DOCTYPE svg PUBLIC "-//W3C//DTD SVG 1.1//EN"
 "http://www.w3.org/Graphics/SVG/1.1/DTD/svg11.dtd">
<!-- Generated by graphviz version 2.43.0 (0)
 -->
<!-- Title: %3 Pages: 1 -->
<svg width="889pt" height="245pt"
 viewBox="0.00 0.00 889.00 245.00" xmlns="http://www.w3.org/2000/svg" xmlns:xlink="http://www.w3.org/1999/xlink">
<g id="graph0" class="graph" transform="scale(1 1) rotate(0) translate(4 241)">
<title>%3</title>
<polygon fill="white" stroke="transparent" points="-4,4 -4,-241 885,-241 885,4 -4,4"/>
<!-- offline -->
<g id="node1" class="node">
<title>offline</title>
<polygon fill="none" stroke="black" points="151.5,-237 26.5,-237 26.5,-194 151.5,-194 151.5,-237"/>
<text text-anchor="middle" x="89" y="-207.4" font-family="Times,serif" font-size="32.00">Offline</text>
</g>
<!-- inactive -->
<g id="node2" class="node">
<title>inactive</title>
<polygon fill="none" stroke="black" points="653,-237 507,-237 507,-194 653,-194 653,-237"/>
<text text-anchor="middle" x="580" y="-207.4" font-family="Times,serif" font-size="32.00">Inactive</text>
</g>
<!-- offline&#45;&gt;inactive -->
<g id="edge2" class="edge">
<title>offline&#45;&gt;inactive</title>
<path fill="none" stroke="black" d="M151.68,-215.5C239.45,-215.5 399.14,-215.5 496.78,-215.5"/>
<polygon fill="black" stroke="black" points="496.91,-219 506.91,-215.5 496.91,-212 496.91,-219"/>
<text text-anchor="middle" x="329.25" y="-223.7" font-family="Times,serif" font-size="16.00">ON ping answer with inactive node state</text>
</g>
<!-- syncing -->
<g id="node3" class="node">
<title>syncing</title>
<polygon fill="none" stroke="black" points="308,-140 162,-140 162,-97 308,-97 308,-140"/>
<text text-anchor="middle" x="235" y="-110.4" font-family="Times,serif" font-size="32.00">Syncing</text>
</g>
<!-- offline&#45;&gt;syncing -->
<g id="edge1" class="edge">
<title>offline&#45;&gt;syncing</title>
<path fill="none" stroke="black" d="M151.68,-200.11C167.86,-194.4 184.5,-186.59 198,-176 207.09,-168.87 214.66,-158.86 220.54,-149.24"/>
<polygon fill="black" stroke="black" points="223.75,-150.67 225.65,-140.25 217.67,-147.22 223.75,-150.67"/>
<text text-anchor="middle" x="376" y="-163.2" font-family="Times,serif" font-size="16.00">ON ping answer with active node state</text>
</g>
<!-- inactive&#45;&gt;offline -->
<g id="edge5" class="edge">
<title>inactive&#45;&gt;offline</title>
<path fill="none" stroke="black" d="M506.91,-205.98C469.04,-201.52 421.99,-196.71 379.75,-194.5 334.92,-192.16 323.57,-192.03 278.75,-194.5 240.05,-196.64 197.1,-201.2 161.87,-205.53"/>
<polygon fill="black" stroke="black" points="161.16,-202.1 151.67,-206.81 162.03,-209.04 161.16,-202.1"/>
<text text-anchor="middle" x="329.25" y="-199.7" font-family="Times,serif" font-size="16.00">ON ping fail</text>
</g>
<!-- inactive&#45;&gt;syncing -->
<g id="edge3" class="edge">
<title>inactive&#45;&gt;syncing</title>
<path fill="none" stroke="black" d="M571.17,-193.88C564.7,-181.38 554.65,-166.29 541,-158 504.7,-135.95 395.9,-126.44 318.38,-122.4"/>
<polygon fill="black" stroke="black" points="318.3,-118.89 308.14,-121.89 317.95,-125.89 318.3,-118.89"/>
<text text-anchor="middle" x="720" y="-163.2" font-family="Times,serif" font-size="16.00">ON ping answer with active node state</text>
</g>
<!-- syncing&#45;&gt;offline -->
<g id="edge6" class="edge">
<title>syncing&#45;&gt;offline</title>
<path fill="none" stroke="black" d="M161.86,-137.42C128.37,-145.96 95.49,-154.97 93,-158 87.14,-165.12 85.04,-174.6 84.73,-183.75"/>
<polygon fill="black" stroke="black" points="81.23,-183.92 85.03,-193.81 88.23,-183.71 81.23,-183.92"/>
<text text-anchor="middle" x="143.5" y="-163.2" font-family="Times,serif" font-size="16.00">ON ping fail</text>
</g>
<!-- active -->
<g id="node4" class="node">
<title>active</title>
<polygon fill="none" stroke="black" points="118,-43 0,-43 0,0 118,0 118,-43"/>
<text text-anchor="middle" x="59" y="-13.4" font-family="Times,serif" font-size="32.00">Active</text>
</g>
<!-- syncing&#45;&gt;active -->
<g id="edge4" class="edge">
<title>syncing&#45;&gt;active</title>
<path fill="none" stroke="black" d="M196.81,-96.89C170.17,-82.51 134.45,-63.23 106.06,-47.9"/>
<polygon fill="black" stroke="black" points="107.58,-44.74 97.11,-43.07 104.25,-50.9 107.58,-44.74"/>
<text text-anchor="middle" x="273.5" y="-66.2" font-family="Times,serif" font-size="16.00">ON sync response handled</text>
</g>
<!-- active&#45;&gt;offline -->
<g id="edge7" class="edge">
<title>active&#45;&gt;offline</title>
<path fill="none" stroke="black" d="M54.22,-43.18C49.56,-66.9 44.2,-106.78 52,-140 55.7,-155.76 63.26,-172.01 70.58,-185.29"/>
<polygon fill="black" stroke="black" points="67.55,-187.04 75.57,-193.97 73.62,-183.56 67.55,-187.04"/>
<text text-anchor="middle" x="102.5" y="-114.7" font-family="Times,serif" font-size="16.00">ON ping fail</text>
</g>
</g>
</svg>
