<?xml version="1.0" encoding="UTF-8" standalone="no"?>
<!DOCTYPE svg PUBLIC "-//W3C//DTD SVG 1.1//EN"
 "http://www.w3.org/Graphics/SVG/1.1/DTD/svg11.dtd">
<!-- Generated by graphviz version 2.43.0 (0)
 -->
<!-- Title: %3 Pages: 1 -->
<svg width="648pt" height="457pt"
 viewBox="0.00 0.00 648.00 457.00" xmlns="http://www.w3.org/2000/svg" xmlns:xlink="http://www.w3.org/1999/xlink">
<g id="graph0" class="graph" transform="scale(1 1) rotate(0) translate(4 453)">
<title>%3</title>
<polygon fill="white" stroke="transparent" points="-4,4 -4,-453 644,-453 644,4 -4,4"/>
<!-- init -->
<g id="node1" class="node">
<title>init</title>
<text text-anchor="middle" x="220" y="-419.4" font-family="Times,serif" font-size="32.00">init</text>
</g>
<!-- generating -->
<g id="node2" class="node">
<title>generating</title>
<polygon fill="none" stroke="black" points="318.5,-352 121.5,-352 121.5,-309 318.5,-309 318.5,-352"/>
<text text-anchor="middle" x="220" y="-322.4" font-family="Times,serif" font-size="32.00">Generating</text>
</g>
<!-- init&#45;&gt;generating -->
<g id="edge1" class="edge">
<title>init&#45;&gt;generating</title>
<path fill="none" stroke="black" d="M220,-405.89C220,-393.19 220,-376.67 220,-362.42"/>
<polygon fill="black" stroke="black" points="223.5,-362.07 220,-352.07 216.5,-362.07 223.5,-362.07"/>
<text text-anchor="middle" x="311.5" y="-375.2" font-family="Times,serif" font-size="16.00">ON created generator</text>
</g>
<!-- available -->
<g id="node3" class="node">
<title>available</title>
<polygon fill="none" stroke="black" points="164,-255 0,-255 0,-212 164,-212 164,-255"/>
<text text-anchor="middle" x="82" y="-225.4" font-family="Times,serif" font-size="32.00">Available</text>
</g>
<!-- generating&#45;&gt;available -->
<g id="edge2" class="edge">
<title>generating&#45;&gt;available</title>
<path fill="none" stroke="black" d="M121.48,-311.13C102.71,-305.64 87.03,-298.92 81,-291 75.48,-283.74 74.1,-274.3 74.58,-265.22"/>
<polygon fill="black" stroke="black" points="78.06,-265.6 75.8,-255.25 71.11,-264.76 78.06,-265.6"/>
<text text-anchor="middle" x="213.5" y="-278.2" font-family="Times,serif" font-size="16.00">ON generating protocol success</text>
</g>
<!-- done -->
<g id="node5" class="node">
<title>done</title>
<text text-anchor="middle" x="228" y="-13.4" font-family="Times,serif" font-size="32.00">done</text>
</g>
<!-- generating&#45;&gt;done -->
<g id="edge3" class="edge">
<title>generating&#45;&gt;done</title>
<path fill="none" stroke="black" d="M318.73,-313.49C329.34,-307.97 338.86,-300.65 346,-291 406.81,-208.83 406.03,-143.74 346,-61 332.05,-41.78 308.25,-31.97 285.66,-27.04"/>
<polygon fill="black" stroke="black" points="286.23,-23.58 275.75,-25.15 284.92,-30.46 286.23,-23.58"/>
<text text-anchor="middle" x="515.5" y="-172.2" font-family="Times,serif" font-size="16.00">ON generating protocol failed</text>
</g>
<!-- using -->
<g id="node4" class="node">
<title>using</title>
<polygon fill="none" stroke="black" points="151.5,-140 40.5,-140 40.5,-97 151.5,-97 151.5,-140"/>
<text text-anchor="middle" x="96" y="-110.4" font-family="Times,serif" font-size="32.00">Using</text>
</g>
<!-- available&#45;&gt;using -->
<g id="edge4" class="edge">
<title>available&#45;&gt;using</title>
<path fill="none" stroke="black" d="M84.57,-211.77C86.71,-194.49 89.79,-169.62 92.21,-150.06"/>
<polygon fill="black" stroke="black" points="95.69,-150.45 93.45,-140.09 88.75,-149.59 95.69,-150.45"/>
<text text-anchor="middle" x="205.5" y="-181.2" font-family="Times,serif" font-size="16.00">ON removal from DB</text>
<text text-anchor="middle" x="205.5" y="-163.2" font-family="Times,serif" font-size="16.00">(start of following protocol)</text>
</g>
<!-- using&#45;&gt;done -->
<g id="edge5" class="edge">
<title>using&#45;&gt;done</title>
<path fill="none" stroke="black" d="M92.13,-96.9C91.12,-85.18 92.08,-70.91 100,-61 116.89,-39.88 144.93,-30.01 170.46,-25.53"/>
<polygon fill="black" stroke="black" points="171.1,-28.97 180.47,-24.01 170.05,-22.05 171.1,-28.97"/>
<text text-anchor="middle" x="223" y="-66.2" font-family="Times,serif" font-size="16.00">ON consuming protocol finish</text>
</g>
</g>
</svg>
