<?xml version="1.0" encoding="UTF-8" standalone="no"?>
<!DOCTYPE svg PUBLIC "-//W3C//DTD SVG 1.1//EN"
 "http://www.w3.org/Graphics/SVG/1.1/DTD/svg11.dtd">
<!-- Generated by graphviz version 2.43.0 (0)
 -->
<!-- Title: %3 Pages: 1 -->
<svg width="651pt" height="475pt"
 viewBox="0.00 0.00 651.00 475.00" xmlns="http://www.w3.org/2000/svg" xmlns:xlink="http://www.w3.org/1999/xlink">
<g id="graph0" class="graph" transform="scale(1 1) rotate(0) translate(4 471)">
<title>%3</title>
<polygon fill="white" stroke="transparent" points="-4,4 -4,-471 647,-471 647,4 -4,4"/>
<!-- init -->
<g id="node1" class="node">
<title>init</title>
<text text-anchor="middle" x="220" y="-437.4" font-family="Times,serif" font-size="32.00">init</text>
</g>
<!-- generating -->
<g id="node2" class="node">
<title>generating</title>
<polygon fill="none" stroke="black" points="318.5,-370 121.5,-370 121.5,-327 318.5,-327 318.5,-370"/>
<text text-anchor="middle" x="220" y="-340.4" font-family="Times,serif" font-size="32.00">Generating</text>
</g>
<!-- init&#45;&gt;generating -->
<g id="edge1" class="edge">
<title>init&#45;&gt;generating</title>
<path fill="none" stroke="black" d="M220,-423.89C220,-411.19 220,-394.67 220,-380.42"/>
<polygon fill="black" stroke="black" points="223.5,-380.07 220,-370.07 216.5,-380.07 223.5,-380.07"/>
<text text-anchor="middle" x="330.5" y="-393.2" font-family="Times,serif" font-size="16.00">ON receive INIT(generate)</text>
</g>
<!-- available -->
<g id="node3" class="node">
<title>available</title>
<polygon fill="none" stroke="black" points="164,-273 0,-273 0,-230 164,-230 164,-273"/>
<text text-anchor="middle" x="82" y="-243.4" font-family="Times,serif" font-size="32.00">Available</text>
</g>
<!-- generating&#45;&gt;available -->
<g id="edge2" class="edge">
<title>generating&#45;&gt;available</title>
<path fill="none" stroke="black" d="M121.48,-329.13C102.71,-323.64 87.03,-316.92 81,-309 75.48,-301.74 74.1,-292.3 74.58,-283.22"/>
<polygon fill="black" stroke="black" points="78.06,-283.6 75.8,-273.25 71.11,-282.76 78.06,-283.6"/>
<text text-anchor="middle" x="213.5" y="-296.2" font-family="Times,serif" font-size="16.00">ON generating protocol success</text>
</g>
<!-- done -->
<g id="node5" class="node">
<title>done</title>
<text text-anchor="middle" x="228" y="-13.4" font-family="Times,serif" font-size="32.00">done</text>
</g>
<!-- generating&#45;&gt;done -->
<g id="edge3" class="edge">
<title>generating&#45;&gt;done</title>
<path fill="none" stroke="black" d="M318.73,-331.49C329.34,-325.97 338.86,-318.65 346,-309 411.57,-220.4 410.73,-150.21 346,-61 332.05,-41.78 308.25,-31.97 285.66,-27.04"/>
<polygon fill="black" stroke="black" points="286.23,-23.58 275.75,-25.15 284.92,-30.46 286.23,-23.58"/>
<text text-anchor="middle" x="518.5" y="-181.2" font-family="Times,serif" font-size="16.00">ON generating protocol failed</text>
</g>
<!-- using -->
<g id="node4" class="node">
<title>using</title>
<polygon fill="none" stroke="black" points="151.5,-140 40.5,-140 40.5,-97 151.5,-97 151.5,-140"/>
<text text-anchor="middle" x="96" y="-110.4" font-family="Times,serif" font-size="32.00">Using</text>
</g>
<!-- available&#45;&gt;using -->
<g id="edge4" class="edge">
<title>available&#45;&gt;using</title>
<path fill="none" stroke="black" d="M84.22,-229.74C86.5,-208.38 90.09,-174.84 92.7,-150.36"/>
<polygon fill="black" stroke="black" points="96.21,-150.48 93.79,-140.16 89.25,-149.73 96.21,-150.48"/>
<text text-anchor="middle" x="205.5" y="-199.2" font-family="Times,serif" font-size="16.00">ON removal from DB</text>
<text text-anchor="middle" x="205.5" y="-181.2" font-family="Times,serif" font-size="16.00">= receive INIT(consume)</text>
<text text-anchor="middle" x="205.5" y="-163.2" font-family="Times,serif" font-size="16.00">(start of following protocol)</text>
</g>
<!-- using&#45;&gt;done -->
<g id="edge5" class="edge">
<title>using&#45;&gt;done</title>
<path fill="none" stroke="black" d="M92.13,-96.9C91.12,-85.18 92.08,-70.91 100,-61 116.89,-39.88 144.93,-30.01 170.46,-25.53"/>
<polygon fill="black" stroke="black" points="171.1,-28.97 180.47,-24.01 170.05,-22.05 171.1,-28.97"/>
<text text-anchor="middle" x="223" y="-66.2" font-family="Times,serif" font-size="16.00">ON consuming protocol finish</text>
</g>
</g>
</svg>
