<?xml version="1.0" encoding="UTF-8" standalone="no"?>
<!DOCTYPE svg PUBLIC "-//W3C//DTD SVG 1.1//EN"
 "http://www.w3.org/Graphics/SVG/1.1/DTD/svg11.dtd">
<!-- Generated by graphviz version 2.43.0 (0)
 -->
<!-- Title: %3 Pages: 1 -->
<svg width="330pt" height="414pt"
 viewBox="0.00 0.00 329.72 414.00" xmlns="http://www.w3.org/2000/svg" xmlns:xlink="http://www.w3.org/1999/xlink">
<g id="graph0" class="graph" transform="scale(1 1) rotate(0) translate(4 410)">
<title>%3</title>
<polygon fill="white" stroke="transparent" points="-4,4 -4,-410 325.72,-410 325.72,4 -4,4"/>
<!-- init -->
<g id="node1" class="node">
<title>init</title>
<text text-anchor="middle" x="93.72" y="-376.4" font-family="Times,serif" font-size="32.00">init</text>
</g>
<!-- prep -->
<g id="node2" class="node">
<title>prep</title>
<polygon fill="none" stroke="black" points="166.22,-291 21.22,-291 21.22,-248 166.22,-248 166.22,-291"/>
<text text-anchor="middle" x="93.72" y="-261.4" font-family="Times,serif" font-size="32.00">Prepare</text>
</g>
<!-- init&#45;&gt;prep -->
<g id="edge1" class="edge">
<title>init&#45;&gt;prep</title>
<path fill="none" stroke="red" d="M57.88,-375.82C41.12,-370.24 22.7,-360.79 12.72,-345 4.17,-331.47 4.17,-322.53 12.72,-309 15.51,-304.59 18.95,-300.67 22.84,-297.2"/>
<polygon fill="red" stroke="red" points="25.02,-299.93 30.79,-291.04 20.74,-294.4 25.02,-299.93"/>
<text text-anchor="middle" x="83.72" y="-332.2" font-family="Times,serif" font-size="16.00" fill="red">ON INIT</text>
<text text-anchor="middle" x="83.72" y="-314.2" font-family="Times,serif" font-size="16.00" fill="red">AND req indexed</text>
</g>
<!-- init&#45;&gt;prep -->
<g id="edge2" class="edge">
<title>init&#45;&gt;prep</title>
<path fill="none" stroke="blue" d="M129.26,-369.14C139.3,-363.24 149.04,-355.31 154.72,-345 162.45,-330.99 162.45,-323.01 154.72,-309 152.48,-304.94 149.62,-301.25 146.35,-297.91"/>
<polygon fill="blue" stroke="blue" points="148.48,-295.12 138.66,-291.14 143.86,-300.37 148.48,-295.12"/>
<text text-anchor="middle" x="225.22" y="-332.2" font-family="Times,serif" font-size="16.00" fill="blue">ON req indexed</text>
<text text-anchor="middle" x="225.22" y="-314.2" font-family="Times,serif" font-size="16.00" fill="blue">&#45;&gt;sending INIT</text>
</g>
<!-- running -->
<g id="node3" class="node">
<title>running</title>
<polygon fill="none" stroke="black" points="169.72,-158 17.72,-158 17.72,-115 169.72,-115 169.72,-158"/>
<text text-anchor="middle" x="93.72" y="-128.4" font-family="Times,serif" font-size="32.00">Running</text>
</g>
<!-- prep&#45;&gt;running -->
<g id="edge3" class="edge">
<title>prep&#45;&gt;running</title>
<path fill="none" stroke="red" d="M27.69,-247.77C20.6,-243 14.31,-237.16 9.72,-230 -3.24,-209.8 -3.24,-196.2 9.72,-176 12.45,-171.75 15.77,-167.97 19.51,-164.59"/>
<polygon fill="red" stroke="red" points="21.94,-167.13 27.69,-158.23 17.65,-161.61 21.94,-167.13"/>
<text text-anchor="middle" x="83.22" y="-208.2" font-family="Times,serif" font-size="16.00" fill="red">ON START</text>
<text text-anchor="middle" x="83.22" y="-190.2" font-family="Times,serif" font-size="16.00" fill="red">AND req finalized</text>
</g>
<!-- prep&#45;&gt;running -->
<g id="edge4" class="edge">
<title>prep&#45;&gt;running</title>
<path fill="none" stroke="blue" d="M140.42,-247.86C146.95,-242.95 152.77,-237.04 156.72,-230 168.46,-209.07 168.46,-196.93 156.72,-176 154.44,-171.93 151.53,-168.24 148.22,-164.9"/>
<polygon fill="blue" stroke="blue" points="150.27,-162.04 140.42,-158.14 145.69,-167.33 150.27,-162.04"/>
<text text-anchor="middle" x="238.22" y="-217.2" font-family="Times,serif" font-size="16.00" fill="blue">ON all INITs ok</text>
<text text-anchor="middle" x="238.22" y="-199.2" font-family="Times,serif" font-size="16.00" fill="blue">AND req finalized</text>
<text text-anchor="middle" x="238.22" y="-181.2" font-family="Times,serif" font-size="16.00" fill="blue">&#45;&gt;send START</text>
</g>
<!-- done -->
<g id="node4" class="node">
<title>done</title>
<text text-anchor="middle" x="93.72" y="-13.4" font-family="Times,serif" font-size="32.00">done</text>
</g>
<!-- running&#45;&gt;done -->
<g id="edge5" class="edge">
<title>running&#45;&gt;done</title>
<path fill="none" stroke="red" d="M27.69,-114.77C20.6,-110 14.31,-104.16 9.72,-97 1.08,-83.53 1.08,-74.47 9.72,-61 16.22,-50.87 26.12,-43.38 36.87,-37.84"/>
<polygon fill="red" stroke="red" points="38.42,-40.98 46.05,-33.63 35.5,-34.62 38.42,-40.98"/>
<text text-anchor="middle" x="83.22" y="-75.2" font-family="Times,serif" font-size="16.00" fill="red">ON protocol done</text>
</g>
<!-- running&#45;&gt;done -->
<g id="edge6" class="edge">
<title>running&#45;&gt;done</title>
<path fill="none" stroke="blue" d="M140.42,-114.86C146.95,-109.95 152.77,-104.04 156.72,-97 164.55,-83.04 164.55,-74.96 156.72,-61 154.44,-56.93 151.53,-53.24 148.22,-49.9"/>
<polygon fill="blue" stroke="blue" points="150.27,-47.04 140.42,-43.14 145.69,-52.33 150.27,-47.04"/>
<text text-anchor="middle" x="241.72" y="-84.2" font-family="Times,serif" font-size="16.00" fill="blue">ON protocol done</text>
<text text-anchor="middle" x="241.72" y="-66.2" font-family="Times,serif" font-size="16.00" fill="blue">&#45;&gt;Broadcast DONE</text>
</g>
</g>
</svg>
