<?xml version="1.0" encoding="UTF-8" standalone="no"?>
<!DOCTYPE svg PUBLIC "-//W3C//DTD SVG 1.1//EN"
 "http://www.w3.org/Graphics/SVG/1.1/DTD/svg11.dtd">
<!-- Generated by graphviz version 2.43.0 (0)
 -->
<!-- Title: %3 Pages: 1 -->
<svg width="519pt" height="143pt"
 viewBox="0.00 0.00 519.00 143.00" xmlns="http://www.w3.org/2000/svg" xmlns:xlink="http://www.w3.org/1999/xlink">
<g id="graph0" class="graph" transform="scale(1 1) rotate(0) translate(4 139)">
<title>%3</title>
<polygon fill="white" stroke="transparent" points="-4,4 -4,-139 515,-139 515,4 -4,4"/>
<!-- a2 -->
<g id="node1" class="node">
<title>a2</title>
<polygon fill="none" stroke="black" points="83,-44 0,-44 0,0 83,0 83,-44"/>
<text text-anchor="middle" x="41.5" y="-27.2" font-family="Times,serif" font-size="16.00">Node A</text>
<text text-anchor="middle" x="41.5" y="-9.2" font-family="Times,serif" font-size="16.00">(Owner)</text>
</g>
<!-- b2 -->
<g id="node2" class="node">
<title>b2</title>
<polygon fill="none" stroke="black" points="511,-44 389,-44 389,0 511,0 511,-44"/>
<text text-anchor="middle" x="450" y="-27.2" font-family="Times,serif" font-size="16.00">Node B</text>
<text text-anchor="middle" x="450" y="-9.2" font-family="Times,serif" font-size="16.00">(Non&#45;Owner)</text>
</g>
<!-- b2&#45;&gt;a2 -->
<g id="edge1" class="edge">
<title>b2&#45;&gt;a2</title>
<path fill="none" stroke="black" d="M388.87,-22C308.82,-22 168.63,-22 93.5,-22"/>
<polygon fill="black" stroke="black" points="93.34,-18.5 83.34,-22 93.34,-25.5 93.34,-18.5"/>
<text text-anchor="middle" x="236" y="-63.2" font-family="Times,serif" font-size="16.00">Sync Response</text>
<text text-anchor="middle" x="236" y="-45.2" font-family="Times,serif" font-size="16.00">List of P and T owned by Node A</text>
<text text-anchor="middle" x="236" y="-27.2" font-family="Times,serif" font-size="16.00">that are not stored at Node B</text>
</g>
<!-- a -->
<g id="node3" class="node">
<title>a</title>
<polygon fill="none" stroke="black" points="83,-121 0,-121 0,-77 83,-77 83,-121"/>
<text text-anchor="middle" x="41.5" y="-104.2" font-family="Times,serif" font-size="16.00">Node A</text>
<text text-anchor="middle" x="41.5" y="-86.2" font-family="Times,serif" font-size="16.00">(Owner)</text>
</g>
<!-- b -->
<g id="node4" class="node">
<title>b</title>
<polygon fill="none" stroke="black" points="511,-121 389,-121 389,-77 511,-77 511,-121"/>
<text text-anchor="middle" x="450" y="-104.2" font-family="Times,serif" font-size="16.00">Node B</text>
<text text-anchor="middle" x="450" y="-86.2" font-family="Times,serif" font-size="16.00">(Non&#45;Owner)</text>
</g>
<!-- a&#45;&gt;b -->
<g id="edge2" class="edge">
<title>a&#45;&gt;b</title>
<path fill="none" stroke="black" d="M83.34,-99C152.5,-99 293.47,-99 378.75,-99"/>
<polygon fill="black" stroke="black" points="378.87,-102.5 388.87,-99 378.87,-95.5 378.87,-102.5"/>
<text text-anchor="middle" x="236" y="-122.2" font-family="Times,serif" font-size="16.00">Sync Request</text>
<text text-anchor="middle" x="236" y="-104.2" font-family="Times,serif" font-size="16.00">List of P and T owned by Node A</text>
</g>
</g>
</svg>
